<svg width="960" height="520" viewBox="0 0 960 520" fill="none" xmlns="http://www.w3.org/2000/svg">
  <rect width="960" height="520" rx="28" fill="#101928"/>
  <rect x="40" y="40" width="880" height="440" rx="24" fill="#162235" stroke="#233552"/>
  <circle cx="480" cy="260" r="88" fill="#24406A"/>
  <circle cx="480" cy="260" r="72" fill="#3770C8"/>
  <rect x="437" y="215" width="38" height="38" rx="11" fill="#FFD43B"/>
  <rect x="485" y="268" width="38" height="38" rx="11" fill="#FFE873"/>
  <path d="M523 234C523 215.222 507.778 200 489 200H446C427.222 200 412 215.222 412 234V251H482C504.644 251 523 269.356 523 292V234Z" fill="#4B8BD6"/>
  <path d="M437 321C437 339.778 452.222 355 471 355H514C532.778 355 548 339.778 548 321V304H478C455.356 304 437 285.644 437 263V321Z" fill="#306998"/>
  <rect x="120" y="84" width="170" height="96" rx="18" fill="#20314C"/>
  <rect x="120" y="340" width="170" height="96" rx="18" fill="#20314C"/>
  <rect x="670" y="84" width="170" height="96" rx="18" fill="#20314C"/>
  <rect x="670" y="340" width="170" height="96" rx="18" fill="#20314C"/>
  <rect x="88" y="212" width="170" height="96" rx="18" fill="#20314C"/>
  <rect x="702" y="212" width="170" height="96" rx="18" fill="#20314C"/>
  <path d="M290 132H372" stroke="#3F5F91" stroke-width="6" stroke-linecap="round"/>
  <path d="M290 388H372" stroke="#3F5F91" stroke-width="6" stroke-linecap="round"/>
  <path d="M588 132H670" stroke="#3F5F91" stroke-width="6" stroke-linecap="round"/>
  <path d="M588 388H670" stroke="#3F5F91" stroke-width="6" stroke-linecap="round"/>
  <path d="M258 260H372" stroke="#3F5F91" stroke-width="6" stroke-linecap="round"/>
  <path d="M588 260H702" stroke="#3F5F91" stroke-width="6" stroke-linecap="round"/>
  <text x="205" y="122" fill="#EAF2FF" font-size="28" font-family="Arial" text-anchor="middle">Web</text>
  <text x="205" y="156" fill="#9CB3D5" font-size="18" font-family="Arial" text-anchor="middle">Flask / Django</text>
  <text x="205" y="378" fill="#EAF2FF" font-size="28" font-family="Arial" text-anchor="middle">Automation</text>
  <text x="205" y="412" fill="#9CB3D5" font-size="18" font-family="Arial" text-anchor="middle">scripts and tools</text>
  <text x="755" y="122" fill="#EAF2FF" font-size="28" font-family="Arial" text-anchor="middle">Data</text>
  <text x="755" y="156" fill="#9CB3D5" font-size="18" font-family="Arial" text-anchor="middle">analysis and charts</text>
  <text x="755" y="378" fill="#EAF2FF" font-size="28" font-family="Arial" text-anchor="middle">AI</text>
  <text x="755" y="412" fill="#9CB3D5" font-size="18" font-family="Arial" text-anchor="middle">ML and automation</text>
  <text x="173" y="250" fill="#EAF2FF" font-size="28" font-family="Arial" text-anchor="middle">Education</text>
  <text x="173" y="284" fill="#9CB3D5" font-size="18" font-family="Arial" text-anchor="middle">beginner friendly</text>
  <text x="787" y="250" fill="#EAF2FF" font-size="28" font-family="Arial" text-anchor="middle">Desktop</text>
  <text x="787" y="284" fill="#9CB3D5" font-size="18" font-family="Arial" text-anchor="middle">tools and apps</text>
  <text x="480" y="448" fill="#89A5CC" font-size="18" font-family="Arial" text-anchor="middle">A readable language used across many practical domains</text>
</svg>
