<?xml version="1.0" encoding="UTF-8"?>
<svg xmlns="http://www.w3.org/2000/svg" viewBox="0 0 1024 1024" fill="none">
  <defs>
    <linearGradient id="window" x1="182" y1="214" x2="864" y2="820" gradientUnits="userSpaceOnUse">
      <stop offset="0" stop-color="#15477f"/>
      <stop offset="0.55" stop-color="#0f3568"/>
      <stop offset="1" stop-color="#0a234a"/>
    </linearGradient>
    <linearGradient id="windowInner" x1="208" y1="332" x2="842" y2="780" gradientUnits="userSpaceOnUse">
      <stop offset="0" stop-color="#0b2b58"/>
      <stop offset="1" stop-color="#081f40"/>
    </linearGradient>
    <linearGradient id="teal" x1="710" y1="520" x2="900" y2="920" gradientUnits="userSpaceOnUse">
      <stop offset="0" stop-color="#3fe0cf"/>
      <stop offset="1" stop-color="#1bb7b1"/>
    </linearGradient>
    <linearGradient id="tealDark" x1="728" y1="650" x2="920" y2="920" gradientUnits="userSpaceOnUse">
      <stop offset="0" stop-color="#22bdb3"/>
      <stop offset="1" stop-color="#10959a"/>
    </linearGradient>
    <linearGradient id="yellow" x1="178" y1="734" x2="496" y2="934" gradientUnits="userSpaceOnUse">
      <stop offset="0" stop-color="#fff0aa"/>
      <stop offset="1" stop-color="#ffd05c"/>
    </linearGradient>
    <linearGradient id="yellowDeep" x1="214" y1="742" x2="442" y2="926" gradientUnits="userSpaceOnUse">
      <stop offset="0" stop-color="#f7d46a"/>
      <stop offset="1" stop-color="#f2b11a"/>
    </linearGradient>
    <linearGradient id="codeYellow" x1="470" y1="502" x2="564" y2="602" gradientUnits="userSpaceOnUse">
      <stop offset="0" stop-color="#ffd651"/>
      <stop offset="1" stop-color="#f3b91a"/>
    </linearGradient>
    <filter id="shadow" x="96" y="120" width="832" height="832" filterUnits="userSpaceOnUse">
      <feDropShadow dx="0" dy="20" stdDeviation="28" flood-color="#06162f" flood-opacity="0.42"/>
    </filter>
  </defs>

  <g filter="url(#shadow)">
    <rect x="176" y="210" width="672" height="632" rx="84" fill="url(#window)"/>
    <rect x="198" y="352" width="628" height="446" rx="52" fill="url(#windowInner)" opacity="0.96"/>
  </g>

  <g>
    <circle cx="286" cy="324" r="38" fill="#ff6d4c"/>
    <circle cx="366" cy="324" r="38" fill="#ffd34e"/>
    <circle cx="446" cy="324" r="38" fill="#35d6ce"/>
  </g>

  <rect x="258" y="508" width="168" height="34" rx="17" fill="#4f7cab" opacity="0.95"/>
  <rect x="258" y="620" width="168" height="34" rx="17" fill="#2fd4c9"/>
  <rect x="258" y="732" width="168" height="34" rx="17" fill="#4f7cab" opacity="0.9"/>
  <rect x="258" y="844" width="168" height="34" rx="17" fill="#4f7cab" opacity="0.9"/>
  <rect x="422" y="440" width="18" height="468" rx="9" fill="#4f7cab" opacity="0.9"/>

  <path d="M522 504 L560 542 L522 580" stroke="#35d6ce" stroke-width="30" stroke-linecap="round" stroke-linejoin="round"/>
  <path d="M628 504 L590 542 L628 580" stroke="#35d6ce" stroke-width="30" stroke-linecap="round" stroke-linejoin="round"/>
  <rect x="556" y="482" width="34" height="120" rx="17" transform="rotate(22 556 482)" fill="url(#codeYellow)"/>
  <rect x="480" y="640" width="178" height="28" rx="14" fill="#ffd247"/>
  <rect x="694" y="640" width="80" height="28" rx="14" fill="#5ca1e8"/>
  <rect x="430" y="726" width="88" height="28" rx="14" fill="#2ec3b8"/>
  <rect x="546" y="726" width="168" height="28" rx="14" fill="#ffd247"/>
  <rect x="430" y="806" width="202" height="28" rx="14" fill="#2ec3b8"/>

  <path d="M690 776C726 720 738 654 730 614C718 556 674 540 648 548C607 561 590 612 614 662C633 702 669 732 690 776Z" fill="url(#teal)"/>
  <path d="M728 548C772 548 806 584 818 644C828 699 807 774 764 835C731 881 718 900 718 900L612 900C612 900 646 858 669 815C701 755 708 686 696 632C689 602 694 548 728 548Z" fill="url(#tealDark)"/>
  <path d="M694 664C727 664 744 685 744 710C744 738 724 758 691 758C664 758 646 741 646 714C646 687 664 664 694 664Z" fill="#0e2e58"/>
  <circle cx="701" cy="690" r="16" fill="#f6f6f2"/>
  <path d="M673 734C689 744 706 747 722 742" stroke="#0f3a63" stroke-width="12" stroke-linecap="round"/>
  <path d="M720 822C742 828 768 828 791 818" stroke="#0f3a63" stroke-width="18" stroke-linecap="round" opacity="0.45"/>
  <ellipse cx="754" cy="818" rx="42" ry="22" fill="#167c88" opacity="0.28"/>
  <ellipse cx="770" cy="818" rx="22" ry="20" fill="#ffd76a" opacity="0.95"/>

  <path d="M192 842C192 806 219 780 253 780H462C500 780 534 810 534 848V910H192V842Z" fill="url(#yellowDeep)"/>
  <path d="M202 842C202 806 228 786 258 786H444C480 786 510 809 510 846V880H202V842Z" fill="#fff0c6" opacity="0.93"/>
  <path d="M244 792C220 828 218 874 236 912" stroke="#f1b20d" stroke-width="18" stroke-linecap="round"/>
  <path d="M488 792C510 818 522 856 518 910" stroke="#f1b20d" stroke-width="18" stroke-linecap="round"/>

  <rect x="418" y="816" width="240" height="152" rx="32" fill="#173e6d"/>
  <rect x="440" y="836" width="196" height="112" rx="24" fill="#0f2f58"/>
  <circle cx="536" cy="894" r="24" fill="#35d6ce"/>
  <path d="M412 972C440 944 468 930 536 930C604 930 648 944 698 972H412Z" fill="#12345f"/>
</svg>
